<?xml version="1.0" encoding="UTF-8"?>
<svg width="18px" height="23px" viewBox="0 0 18 23" version="1.1" xmlns="http://www.w3.org/2000/svg" xmlns:xlink="http://www.w3.org/1999/xlink">
    <!-- Generator: sketchtool 61 (101010) - https://sketch.com -->
    <title>BADFBB9C-21FE-4BC0-A226-E372EE848DFB@1.00x</title>
    <desc>Created with sketchtool.</desc>
    <g id="Symbols" stroke="none" stroke-width="1" fill="none" fill-rule="evenodd">
        <g id="app/navigation-sidebar" transform="translate(-23.000000, -278.000000)" fill="#231F20">
            <g id="Sopimukset" transform="translate(0.000000, 272.500000)">
                <g id="atoms/icons/document/24" transform="translate(20.000000, 5.000000)">
                    <path d="M21,1 L21,23 L3,23 L3,9 L4.741,9 L4.7419366,21.3500004 L19.2580646,21.3500004 L19.2580646,2.65 L12,2.65 L12,1 L21,1 Z M17.6,18 L17.6,19.7 L6,19.7 L6,18 L17.6,18 Z M10,15 L10,16.7 L6,16.7 L6,15 L10,15 Z M4.26243563,3.08071012 L8.70639967,7.52507832 L11.7375646,4.49492357 L12.9497476,5.70710662 L9.9183807,8.73705934 L9.91928988,8.73756437 L8.70710678,9.94974747 L3.05025253,4.29289322 L4.26243563,3.08071012 Z" id="aggreements_icon"></path>
                </g>
            </g>
        </g>
    </g>
</svg>