<?xml version="1.0" encoding="utf-8"?>
<!-- Generator: Adobe Illustrator 24.0.1, SVG Export Plug-In . SVG Version: 6.00 Build 0)  -->
<svg version="1.1" id="Layer_1" xmlns="http://www.w3.org/2000/svg" xmlns:xlink="http://www.w3.org/1999/xlink" x="0px" y="0px"
	 viewBox="0 0 24 24" style="enable-background:new 0 0 24 24;" xml:space="preserve">
<style type="text/css">
	.st0{fill-rule:evenodd;clip-rule:evenodd;fill:#1A1A1A;}
</style>
<title>462DE2B5-8741-4ACA-8BED-566013D25922@1.00x</title>
<desc>Created with sketchtool.</desc>
<g id="Symbols">
	<g id="app_x2F_navigation-sidebar" transform="translate(-21.000000, -24.000000)">
		<g id="Venepaikat" transform="translate(0.000000, 16.000000)">
			<g id="atoms_x2F_icons_x2F_ship_x2F_24" transform="translate(20.000000, 3.500000)">
				<g id="Icon-color" transform="translate(1.000000, 5.000000)">
					<g id="Mask">
						<path id="Fill-73" class="st0" d="M22,15.1l-1.5-4H1l2.9,4.4c-0.1,0.1-0.2,0.1-0.3,0.2c-0.6,0.4-1,0.7-1.8,0.7v1.5
							c1.2,0,2-0.5,2.6-0.9c0.6-0.4,1-0.7,1.8-0.7c0.7,0,1.2,0.3,1.8,0.7c0.6,0.4,1.4,0.9,2.6,0.9c1.2,0,2-0.5,2.6-0.9
							c0.6-0.4,1-0.7,1.8-0.7s1.2,0.3,1.8,0.7c0.7,0.4,1.4,0.9,2.6,0.9c1.2,0,2-0.5,2.6-0.9c0.6-0.4,1-0.7,1.8-0.7v-1.5
							C23,14.7,22.4,14.9,22,15.1 M17.5,15.6c-0.6-0.4-1.4-0.9-2.5-0.9c-1.2,0-1.9,0.5-2.5,0.9c-0.6,0.4-1,0.7-1.8,0.7
							c-0.8,0-1.2-0.3-1.8-0.7c-0.6-0.4-1.4-0.9-2.5-0.9c-0.4,0-0.7,0-1,0.1l-1.5-2.3h15.8l1.2,3.3c-0.4,0.3-0.8,0.4-1.5,0.4
							C18.5,16.3,18,16,17.5,15.6"/>
						<path id="Fill-74" class="st0" d="M19.1,9V7.6V4.5h-3.2l-2.1,3.1h-7L5.9,9.1L19.1,9L19.1,9z M16.6,6h1v1.7h-2.1L16.6,6z"/>
					</g>
				</g>
			</g>
		</g>
	</g>
</g>
</svg>
