<?xml version="1.0" encoding="UTF-8"?>
<svg width="22px" height="24px" viewBox="0 0 22 24" version="1.1" xmlns="http://www.w3.org/2000/svg" xmlns:xlink="http://www.w3.org/1999/xlink">
    <!-- Generator: sketchtool 61 (101010) - https://sketch.com -->
    <title>3A2944E0-FB7D-4203-BCCC-C9C76D915EBC@1.00x</title>
    <desc>Created with sketchtool.</desc>
    <g id="Symbols" stroke="none" stroke-width="1" fill="none" fill-rule="evenodd">
        <g id="app/navigation-sidebar" transform="translate(-21.000000, -238.000000)" fill="#1D1C1A">
            <g id="Asiakkaat" transform="translate(0.000000, 235.000000)">
                <g id="atoms/icons/customers/24" transform="translate(20.000000, 3.500000)">
                    <path d="M20.1333314,17.9229488 C21.7136388,17.9229488 23,19.2059581 23,20.7829184 L23,20.7829184 L23,23 L21.4359845,23 L21.4359845,20.7829184 C21.4359845,20.0660239 20.8519051,19.4829636 20.1333314,19.4829636 L20.1333314,19.4829636 L15.9640099,19.4829636 C15.2454362,19.4829636 14.6610102,20.0660239 14.6610102,20.7829184 L14.6610102,20.7829184 L14.6610102,23 L13.0973413,23 L13.0973413,20.7829184 C13.0973413,19.2059581 14.3837025,17.9229488 15.9640099,17.9229488 L15.9640099,17.9229488 Z M8.03599013,17.9229488 C9.6162975,17.9229488 10.9026587,19.2059581 10.9026587,20.7829184 L10.9026587,20.7829184 L10.9026587,23 L9.33898978,23 L9.33898978,20.7829184 C9.33898978,20.0660239 8.75456376,19.4829636 8.03599013,19.4829636 L8.03599013,19.4829636 L3.86666856,19.4829636 C3.14809493,19.4829636 2.56366891,20.0660239 2.56366891,20.7829184 L2.56366891,20.7829184 L2.56366891,23 L1,23 L1,20.7829184 C1,19.2059581 2.28636119,17.9229488 3.86666856,17.9229488 L3.86666856,17.9229488 Z M18.048636,11.4998444 C19.5741751,11.4998444 20.8109675,12.7334008 20.8109675,14.2557208 C20.8109675,15.7776949 19.5741751,17.0115972 18.048636,17.0115972 C16.5227503,17.0115972 15.2863045,15.7776949 15.2863045,14.2557208 C15.2863045,12.7334008 16.5227503,11.4998444 18.048636,11.4998444 Z M5.95129468,11.4998444 C7.47683378,11.4998444 8.71362621,12.7334008 8.71362621,14.2557208 C8.71362621,15.7776949 7.47683378,17.0115972 5.95129468,17.0115972 C4.42575558,17.0115972 3.18896315,15.7776949 3.18896315,14.2557208 C3.18896315,12.7334008 4.42575558,11.4998444 5.95129468,11.4998444 Z M18.048636,13.0598592 C17.3876037,13.0598592 16.8499734,13.5962332 16.8499734,14.2557208 C16.8499734,14.9152083 17.3876037,15.4515823 18.048636,15.4515823 C18.7093216,15.4515823 19.2472986,14.9152083 19.2472986,14.2557208 C19.2472986,13.5962332 18.7093216,13.0598592 18.048636,13.0598592 Z M5.95129468,13.0598592 C5.2902624,13.0598592 4.75263206,13.5962332 4.75263206,14.2557208 C4.75263206,14.9152083 5.2902624,15.4515823 5.95129468,15.4515823 C6.61232696,15.4515823 7.1499573,14.9152083 7.1499573,14.2557208 C7.1499573,13.5962332 6.61232696,13.0598592 5.95129468,13.0598592 Z M20.1333314,6.42306981 C21.7136388,6.42306981 23,7.70607915 23,9.28303941 L23,9.28303941 L23,11.500121 L21.4359845,11.500121 L21.4359845,9.28303941 C21.4359845,8.56614497 20.8519051,7.98308467 20.1333314,7.98308467 L20.1333314,7.98308467 L15.9640099,7.98308467 C15.2454362,7.98308467 14.6610102,8.56614497 14.6610102,9.28303941 L14.6610102,9.28303941 L14.6610102,11.500121 L13.0973413,11.500121 L13.0973413,9.28303941 C13.0973413,7.70607915 14.3837025,6.42306981 15.9640099,6.42306981 L15.9640099,6.42306981 Z M8.03599013,6.42306981 C9.6162975,6.42306981 10.9026587,7.70607915 10.9026587,9.28303941 L10.9026587,9.28303941 L10.9026587,11.500121 L9.33898978,11.500121 L9.33898978,9.28303941 C9.33898978,8.56614497 8.75456376,7.98308467 8.03599013,7.98308467 L8.03599013,7.98308467 L3.86666856,7.98308467 C3.14809493,7.98308467 2.56366891,8.56614497 2.56366891,9.28303941 L2.56366891,9.28303941 L2.56366891,11.500121 L1,11.500121 L1,9.28303941 C1,7.70607915 2.28636119,6.42306981 3.86666856,6.42306981 L3.86666856,6.42306981 Z M18.048636,2.66453526e-15 C19.5741751,2.66453526e-15 20.8109675,1.23355642 20.8109675,2.75587639 C20.8109675,4.27785053 19.5741751,5.51175277 18.048636,5.51175277 C16.5227503,5.51175277 15.2863045,4.27785053 15.2863045,2.75587639 C15.2863045,1.23355642 16.5227503,2.66453526e-15 18.048636,2.66453526e-15 Z M5.95129468,2.66453526e-15 C7.47683378,2.66453526e-15 8.71362621,1.23355642 8.71362621,2.75587639 C8.71362621,4.27785053 7.47683378,5.51175277 5.95129468,5.51175277 C4.42575558,5.51175277 3.18896315,4.27785053 3.18896315,2.75587639 C3.18896315,1.23355642 4.42575558,2.66453526e-15 5.95129468,2.66453526e-15 Z M18.048636,1.56001486 C17.3876037,1.56001486 16.8499734,2.09638884 16.8499734,2.75587639 C16.8499734,3.41536394 17.3876037,3.95173792 18.048636,3.95173792 C18.7093216,3.95173792 19.2472986,3.41536394 19.2472986,2.75587639 C19.2472986,2.09638884 18.7093216,1.56001486 18.048636,1.56001486 Z M5.95129468,1.56001486 C5.2902624,1.56001486 4.75263206,2.09638884 4.75263206,2.75587639 C4.75263206,3.41536394 5.2902624,3.95173792 5.95129468,3.95173792 C6.61232696,3.95173792 7.1499573,3.41536394 7.1499573,2.75587639 C7.1499573,2.09638884 6.61232696,1.56001486 5.95129468,1.56001486 Z" id="customers_icon"></path>
                </g>
            </g>
        </g>
    </g>
</svg>