<?xml version="1.0" encoding="utf-8"?>
<!-- Generator: Adobe Illustrator 24.0.1, SVG Export Plug-In . SVG Version: 6.00 Build 0)  -->
<svg version="1.1" id="Layer_1" xmlns="http://www.w3.org/2000/svg" xmlns:xlink="http://www.w3.org/1999/xlink" x="0px" y="0px"
	 viewBox="0 0 24 24" style="enable-background:new 0 0 24 24;" xml:space="preserve">
<style type="text/css">
	.st0{fill-rule:evenodd;clip-rule:evenodd;fill:#1A1A1A;}
</style>
<title>atoms/icons/coffee/24 copy</title>
<desc>Created with Sketch.</desc>
<g id="Symbols">
	<g id="app_x2F_navigation-sidebar" transform="translate(-21.000000, -358.000000)">
		<g id="Viestintä" transform="translate(0.000000, 350.500000)">
			<g id="atoms_x2F_icons_x2F_comment_x2F_24" transform="translate(20.000000, 5.000000)">
				<g id="Icon-color" transform="translate(1.000000, 3.000000)">
					<g id="Mask">
						<path id="Fill-28" class="st0" d="M18.9,4.2c1.6,0,2.8,1.2,2.8,2.8v6.7c0,1.6-1.2,2.8-2.8,2.8l-1.1,0c-1,0-2,0.3-2.8,0.9
							c-0.8-0.6-1.8-0.9-2.8-0.9h-1.1l-5.6,0c-1.6,0-2.8-1.2-2.8-2.8V7c0-1.6,1.2-2.8,2.8-2.8H18.9z M18.9,2.5H5.5C3,2.5,1,4.5,1,7
							v6.7c0,2.5,1.9,4.5,4.5,4.5l5.6,0h1.1c0.9,0,1.7,0.3,2.3,1l0.5,0.5l0.5-0.5c0.6-0.6,1.5-1,2.3-1l1.1,0c2.5,0,4.5-1.9,4.5-4.5
							V7C23.4,4.5,21.4,2.5,18.9,2.5L18.9,2.5z"/>
						<polygon id="Fill-30" class="st0" points="5.7,9 18.7,9 18.7,7.3 5.7,7.3 						"/>
						<polygon id="Fill-32" class="st0" points="5.7,13.4 18.7,13.4 18.7,11.8 5.7,11.8 						"/>
					</g>
				</g>
			</g>
		</g>
	</g>
</g>
</svg>
