<?xml version="1.0" encoding="UTF-8"?>
<svg width="22px" height="23px" viewBox="0 0 22 23" version="1.1" xmlns="http://www.w3.org/2000/svg" xmlns:xlink="http://www.w3.org/1999/xlink">
    <!-- Generator: sketchtool 61 (101010) - https://sketch.com -->
    <title>61A93234-8D52-4EB1-8951-99578AA453A4@1.00x</title>
    <desc>Created with sketchtool.</desc>
    <g id="Symbols" stroke="none" stroke-width="1" fill="none" fill-rule="evenodd">
        <g id="app/navigation-sidebar" transform="translate(-21.000000, -317.000000)" fill="#231F20" fill-rule="nonzero">
            <g id="Laskutus" transform="translate(0.000000, 311.500000)">
                <g id="atoms/icons/money/24" transform="translate(20.000000, 5.000000)">
                    <path d="M12,1 C18.0751322,1 23,5.92486775 23,12 C23,18.0751322 18.0751322,23 12,23 C5.92486775,23 1,18.0751322 1,12 C1,5.92486775 5.92486775,1 12,1 Z M12,2.79185511 C6.914482,2.79185511 2.79185511,6.914482 2.79185511,12 C2.79185511,17.085518 6.914482,21.2081449 12,21.2081449 C17.085518,21.2081449 21.2081449,17.085518 21.2081449,12 C21.2081449,6.914482 17.085518,2.79185511 12,2.79185511 Z M12.6821432,6.97285035 C14.374283,6.97285035 15.5158058,8.08511299 15.9321259,9.50324784 L15.9321259,9.50324784 L14.1594081,10.643317 C14.1594081,9.50324784 13.743088,8.58563117 12.6821432,8.58563117 C11.7554953,8.58563117 11.2451674,9.30860188 11.0034332,10.3096383 L11.0034332,10.3096383 L13.5416428,10.3096383 L13.1656117,11.6304501 L10.842277,11.6304501 L10.842277,12.4368405 L12.9641665,12.4368405 L12.5747058,13.7576524 L11.0034332,13.7576524 C11.2317377,14.6891724 11.7017766,15.3148201 12.6821432,15.3148201 C13.7699473,15.3148201 14.1459784,14.3137837 14.1594081,13.1737145 L14.1594081,13.1737145 L15.9321259,14.327687 C15.5158058,15.7319186 14.4414314,16.9276009 12.6821432,16.9276009 C10.9228551,16.9276009 9.59331673,15.8709514 9.12327792,13.7576524 L9.12327792,13.7576524 L7.96832541,13.7576524 L7.96832541,12.4368405 L8.96212176,12.4368405 C8.94869208,12.2839044 8.94869208,12.117065 8.94869208,11.9363224 L8.94869208,11.9363224 L8.94869208,11.6304501 L7.96832541,11.6304501 L7.96832541,10.3096383 L9.10984824,10.3096383 C9.57988705,8.11291955 11.0034332,6.97285035 12.6821432,6.97285035 Z" id="agreements_icon"></path>
                </g>
            </g>
        </g>
    </g>
</svg>