<?xml version="1.0" encoding="UTF-8"?>
<svg width="17px" height="23px" viewBox="0 0 17 23" version="1.1" xmlns="http://www.w3.org/2000/svg" xmlns:xlink="http://www.w3.org/1999/xlink">
    <!-- Generator: sketchtool 61 (101010) - https://sketch.com -->
    <title>143F45C4-825C-4F9D-B838-644E23332145@1.00x</title>
    <desc>Created with sketchtool.</desc>
    <g id="Symbols" stroke="none" stroke-width="1" fill="none" fill-rule="evenodd">
        <g id="app/navigation-sidebar" transform="translate(-24.000000, -395.000000)" fill="#231F20" fill-rule="nonzero">
            <g id="Muistutukset" transform="translate(0.000000, 391.000000)">
                <g id="atoms/icons/bell/24" transform="translate(20.000000, 3.500000)">
                    <path d="M12.4979126,1 L13.0399866,1.53669678 C13.3950465,1.88823454 13.8220182,2.15387445 14.6537423,2.56709247 L15.3251911,2.89617402 C15.3717687,2.91918921 15.415709,2.94103087 15.4591206,2.96275392 L15.5988935,3.03336041 C16.7935547,3.64277824 17.5579066,4.19151033 18.2030587,5.02628855 C19.0436546,6.11395607 19.4815012,7.53441582 19.4945763,9.40349047 L19.494878,9.49007441 L19.4951246,12.3525296 C19.5004657,14.7166015 19.5940622,15.5456317 19.9174826,16.3262478 L19.971104,16.4516917 C20.080413,16.7001526 20.2017361,16.9292666 20.5302095,17.5181379 L20.5648328,17.5781092 C20.8715736,17.8579101 21,18.1113853 21,18.3006294 C21,18.6994433 20.4299803,19.3831072 18.8234438,19.9976513 C17.8776945,20.3593746 16.7501235,20.6293599 15.5151739,20.7959022 C15.1154194,22.0741502 13.9396882,23 12.5516012,23 C11.1684862,23 9.99631745,22.0808819 9.5923036,20.8100022 C8.31522395,20.6448936 7.14964685,20.3698319 6.17655619,19.9976513 L6.07212777,19.9570355 C4.54523925,19.3531936 4,18.6906781 4,18.3006294 C4,18.1043819 4.13810774,17.8390613 4.46995734,17.5469389 L4.58184139,17.3483534 C4.8564407,16.8517393 4.96424906,16.6369162 5.07476323,16.371206 L5.09475438,16.3223718 C5.39672294,15.5725925 5.48973267,14.7677002 5.49998971,12.5750411 L5.50097561,12.1279651 L5.50097561,9.49007441 C5.50097561,7.57824259 5.93925785,6.13074946 6.79276588,5.02635488 C7.45031383,4.17552235 8.23170451,3.62182907 9.46628192,2.99819572 L9.70607394,2.8787231 L10.1778548,2.64808453 C11.1002271,2.19666069 11.5595977,1.92182612 11.9330896,1.55903513 L12.4979126,1 Z M12.5516012,18.2517967 C11.6942415,18.2517967 10.9967232,18.9618114 10.9967232,19.8345312 C10.9967232,20.7072509 11.6942415,21.4172656 12.5516012,21.4172656 C13.408961,21.4172656 14.1064793,20.7072509 14.1064793,19.8345312 C14.1064793,18.9618114 13.408961,18.2517967 12.5516012,18.2517967 Z M12.4979268,3.13655638 L12.4641137,3.16130971 C12.0850274,3.43689675 11.6304059,3.68958817 10.9838147,4.00946877 L10.3504202,4.3196697 C10.3057445,4.34174379 10.2638185,4.36258354 10.2226157,4.38320157 L10.094672,4.44783575 C9.08823406,4.96130411 8.48857322,5.391935 8.01482474,6.00494066 C7.39984023,6.80069833 7.06687419,7.88011767 7.05612254,9.41304913 L7.05585366,9.49007441 L7.05556601,12.3744262 C7.05044134,14.5039652 6.97536214,15.5413269 6.71231841,16.4160769 C8.31485034,15.8941072 10.3442758,15.6099808 12.5,15.6099808 C14.6593133,15.6099808 16.691907,15.8950541 18.2976394,16.4180547 C18.0277401,15.5507098 17.9476424,14.5263563 17.9405334,12.4518705 L17.94,9.49007441 C17.94,7.91613928 17.6062563,6.81390888 16.9810082,6.00488507 C16.4973818,5.37910899 15.8825499,4.94339528 14.8376738,4.41557359 L14.6113345,4.30282197 L14.1442874,4.07451003 C13.4265663,3.72324752 12.9361856,3.45530855 12.5317671,3.16131476 L12.4979268,3.13655638 Z" id="bell_icon"></path>
                </g>
            </g>
        </g>
    </g>
</svg>