<?xml version="1.0" encoding="UTF-8"?>
<svg width="22px" height="22px" viewBox="0 0 22 22" version="1.1" xmlns="http://www.w3.org/2000/svg" xmlns:xlink="http://www.w3.org/1999/xlink">
    <!-- Generator: sketchtool 61 (101010) - https://sketch.com -->
    <title>856B65EE-F78B-465E-B018-E5B9B74F085E@1.00x</title>
    <desc>Created with sketchtool.</desc>
    <g id="Symbols" stroke="none" stroke-width="1" fill="none" fill-rule="evenodd">
        <g id="app/navigation-sidebar" transform="translate(-21.000000, -435.000000)" stroke="#000000" stroke-width="1.6">
            <g id="Asetukset" transform="translate(0.000000, 430.000000)">
                <g id="atoms/icons/settings/24" transform="translate(20.000000, 4.000000)">
                    <path d="M12,16.8 C9.35817289,16.8 7.2,14.6418275 7.2,12 C7.2,9.35817251 9.35817289,7.2 12,7.2 C14.6418271,7.2 16.8,9.35817251 16.8,12 C16.8,14.6418275 14.6418271,16.8 12,16.8 Z M19.759008,5.35703937 L18.6163024,4.2126723 L16.3306514,4.97566539 L16.023739,4.80662356 C15.4004901,4.46334929 14.7824204,4.2054401 14.1636571,4.03643833 L13.8131771,3.94071234 L12.7749292,1.8 L11.1863786,1.8 L10.1168837,3.94216765 L9.77173206,4.03643833 C9.1443318,4.20779909 8.5289569,4.46767837 7.95927692,4.79797132 L7.6470459,4.97899876 L5.35138126,4.21267235 L4.2086953,5.35703933 L4.97071177,7.64651655 L4.80253876,7.95275013 C4.4596733,8.57708883 4.20207681,9.19621308 4.03326807,9.81608858 L3.93785544,10.1664493 L1.8,11.2063641 L1.8,12.800019 L3.93931065,13.8712645 L4.03326807,14.2162816 C4.20443193,14.8448052 4.46400269,15.4612514 4.79392863,16.0320052 L4.9740263,16.3435643 L4.20869533,18.6429676 L5.35138116,19.7873556 L7.63707066,19.0243269 L7.94399686,19.1933925 C8.56714831,19.536646 9.18519429,19.7945432 9.80402025,19.9635621 L10.1491662,20.0578312 L11.2186945,22.2 L12.8136214,22.2 L13.8831163,20.0578328 L14.2282679,19.9635621 C14.8557512,19.7921787 15.4711172,19.5323106 16.0406879,19.202047 L16.3529344,19.020992 L18.6486192,19.7873559 L19.7913063,18.6429675 L19.0292885,16.3535198 L19.1974625,16.0472844 C19.540312,15.4229749 19.7979188,14.803811 19.9667341,14.1839114 L20.060693,13.8388888 L22.2,12.7676768 L22.2,11.1771269 L20.0305319,10.136705 L19.9344126,9.78375724 C19.7632099,9.15510505 19.5036411,8.53863548 19.1737766,7.96807531 L18.9936405,7.65649757 L19.759008,5.35703937 Z" id="Fill-1"></path>
                </g>
            </g>
        </g>
    </g>
</svg>