<?xml version="1.0" encoding="UTF-8"?>
<svg width="20px" height="23px" viewBox="0 0 20 23" version="1.1" xmlns="http://www.w3.org/2000/svg" xmlns:xlink="http://www.w3.org/1999/xlink">
    <!-- Generator: sketchtool 61 (101010) - https://sketch.com -->
    <title>C457207F-82AE-4F06-9978-B20E3A46BC64@1.00x</title>
    <desc>Created with sketchtool.</desc>
    <g id="Symbols" stroke="none" stroke-width="1" fill="none" fill-rule="evenodd">
        <g id="app/navigation-sidebar" transform="translate(-22.000000, -161.000000)" fill="#231F20">
            <g id="Talvisäilytys" transform="translate(0.000000, 157.000000)">
                <g id="atoms/icons/winter/24" transform="translate(20.000000, 3.500000)">
                    <polygon id="Fill-1" points="11.2990051 1 11.2990051 3.91036828 9.0357574 2.66318504 8.35391084 3.8836488 11.2990051 5.52299183 11.2990051 10.7542555 6.64346668 8.1024496 6.66969155 4.82335245 5.24106065 4.82335245 5.21608459 7.28894411 2.7072389 5.86705656 2 7.08628711 4.53465429 8.53242774 2.32177497 9.84209346 3.05482246 11.0341935 5.94829955 9.34634429 10.5917662 11.9751303 5.94829955 14.6302248 3.05482246 12.938676 2.32177497 14.1340645 4.53340549 15.4293429 2 16.8898709 2.7072389 18.1091014 5.21608459 16.6859807 5.24106065 19.1252639 6.66969155 19.1252639 6.64346668 15.8490443 11.2990051 13.2206693 11.2990051 18.4256245 8.35391084 20.0649676 9.0357574 21.3092733 11.2990051 20.0411256 11.2990051 23 12.7268035 23 12.7268035 20.0892207 14.9134579 21.3092733 15.5948882 20.0649676 12.7268035 18.4782414 12.7268035 13.1939498 17.2799401 15.7980717 17.2537152 19.1252639 18.6702743 19.1252639 18.7077384 16.5967787 21.2802731 18.0844373 22 16.8660289 22 16.8652067 19.4407859 15.4046787 21.6016318 14.1340645 20.8939766 12.938676 18.0138201 14.6055606 13.4340424 11.9751303 18.0138201 9.37059736 20.8939766 11.0341935 21.6016318 9.84209346 19.4407859 8.57065715 22 7.11095125 22 7.11012911 21.2802731 5.89048749 18.7077384 7.36499187 18.6690255 4.82335245 17.2537152 4.82335245 17.2799401 8.17849736 12.7268035 10.7826193 12.7268035 5.4983277 15.5948882 3.8836488 14.9134579 2.66318504 12.7268035 3.8836488 12.7268035 1"></polygon>
                </g>
            </g>
        </g>
    </g>
</svg>