<?xml version="1.0" encoding="UTF-8"?>
<svg viewBox="0 0 270 203" xmlns="http://www.w3.org/2000/svg">
<g fill-rule="evenodd">
<rect width="100%" height="100%" rx="0" ry="0" fill="#d6d9e1"/>
<g transform="translate(0 -33.598)" fill="#6d7278">
<path d="m161.03 145.92-3.9825-10.916h-53.546l7.962 11.943c-0.234 0.147-0.462 0.294-0.6855 0.441-1.5675 1.017-2.805 1.821-4.9605 1.821v3.9915c3.3375 0 5.355-1.311 7.134-2.4675 1.533-0.996 2.7435-1.782 4.797-1.782 2.0505 0 3.261 0.786 4.794 1.782 1.779 1.1565 3.7965 2.4675 7.134 2.4675 3.336 0 5.3535-1.311 7.134-2.4675 1.5315-0.996 2.742-1.782 4.794-1.782s3.2625 0.786 4.7955 1.782c1.7805 1.1565 3.798 2.4675 7.134 2.4675 3.3375 0 5.355-1.311 7.134-2.4675 1.533-0.996 2.7435-1.782 4.7955-1.782v-3.99c-1.8105 0-3.2295 0.4035-4.434 0.9585m-12.454 1.4685c-1.752-1.1385-3.735-2.427-6.9705-2.427-3.234 0-5.217 1.2885-6.969 2.427-1.5675 1.017-2.805 1.821-4.959 1.821-2.1555 0-3.393-0.804-4.9605-1.821-1.7505-1.1385-3.735-2.427-6.9675-2.427-0.9735 0-1.8315 0.117-2.6055 0.312l-4.1865-6.279h43.299l3.2835 9c-1.173 0.7125-2.3025 1.215-4.005 1.215-2.154 0-3.393-0.804-4.959-1.821"/>
<path d="m152.95 129.45v-12.446h-8.7465l-5.682 8.5245h-19.242l-2.28 3.99h35.95v-0.069zm-6.6105-8.4555h2.6205v4.5345h-5.643l3.0225-4.5345z"/>
</g>
</g>
</svg>